HIERARCHY
ROOT Hips
{
	OFFSET 0.000000 0.000000 0.000000
	CHANNELS 6 Xposition Yposition Zposition Xrotation Yrotation Zrotation
	JOINT LeftUpLeg_virtual
	{
		OFFSET 0.000000 0.000000 0.000000
		CHANNELS 3 Xrotation Yrotation Zrotation
		JOINT LeftUpLeg
		{
			OFFSET 11.394100 -6.187798 -0.413800
			CHANNELS 3 Xrotation Yrotation Zrotation
			JOINT LeftLeg
			{
				OFFSET 0.430247 -32.302673 3.732800
				CHANNELS 3 Xrotation Yrotation Zrotation
				JOINT LeftFoot
				{
					OFFSET -0.430247 -48.264931 -6.423300
					CHANNELS 3 Xrotation Yrotation Zrotation
					JOINT LeftToeBase
					{
						OFFSET 4.230900 -16.068199 23.438400
						CHANNELS 3 Xrotation Yrotation Zrotation
						JOINT LeftToe_End
						{
							OFFSET 4.510700 0.695400 19.974600
							CHANNELS 3 Xrotation Yrotation Zrotation
							End Site
							{
								OFFSET 0 0 0
							}
						}
					}
				}
			}
		}
	}
	JOINT RightUpLeg_virtual
	{
		OFFSET 0.000000 0.000000 0.000000
		CHANNELS 3 Xrotation Yrotation Zrotation
		JOINT RightUpLeg
		{
			OFFSET -11.333700 -6.187798 -0.413800
			CHANNELS 3 Xrotation Yrotation Zrotation
			JOINT RightLeg
			{
				OFFSET -0.430392 -32.302628 3.733000
				CHANNELS 3 Xrotation Yrotation Zrotation
				JOINT RightFoot
				{
					OFFSET 0.430392 -48.264973 -6.423500
					CHANNELS 3 Xrotation Yrotation Zrotation
					JOINT RightToeBase
					{
						OFFSET -4.230900 -16.068199 23.438400
						CHANNELS 3 Xrotation Yrotation Zrotation
						JOINT RightToe_End
						{
							OFFSET -4.510700 0.695400 19.974600
							CHANNELS 3 Xrotation Yrotation Zrotation
							End Site
							{
								OFFSET 0 0 0
							}
						}
					}
				}
			}
		}
	}
	JOINT Spine_virtual
	{
		OFFSET 0.000000 0.000000 0.000000
		CHANNELS 3 Xrotation Yrotation Zrotation
		JOINT Spine
		{
			OFFSET -0.002400 12.777504 0.315300
			CHANNELS 3 Xrotation Yrotation Zrotation
			JOINT Spine1
			{
				OFFSET -0.002067 5.816869 0.032633
				CHANNELS 3 Xrotation Yrotation Zrotation
				JOINT Spine1_split
				{
					OFFSET -0.002067 5.816869 0.032633
					CHANNELS 3 Xrotation Yrotation Zrotation
					JOINT Spine2
					{
						OFFSET -0.002067 5.816869 0.032633
						CHANNELS 3 Xrotation Yrotation Zrotation
						JOINT Neck_virtual
						{
							OFFSET 0.000000 0.000000 0.000000
							CHANNELS 3 Xrotation Yrotation Zrotation
							JOINT Neck
							{
								OFFSET -0.003700 21.199493 -0.826900
								CHANNELS 3 Xrotation Yrotation Zrotation
								JOINT Head
								{
									OFFSET 0.000000 20.442200 4.834800
									CHANNELS 3 Xrotation Yrotation Zrotation
									JOINT HeadTop_End
									{
										OFFSET 0.000000 34.668396 4.968400
										CHANNELS 3 Xrotation Yrotation Zrotation
										End Site
										{
											OFFSET 0 0 0
										}
									}
								}
							}
						}
						JOINT LeftShoulder_virtual
						{
							OFFSET 0.000000 0.000000 0.000000
							CHANNELS 3 Xrotation Yrotation Zrotation
							JOINT LeftShoulder
							{
								OFFSET 3.288150 8.794197 -1.372250
								CHANNELS 3 Xrotation Yrotation Zrotation
								JOINT LeftShoulder_split
								{
									OFFSET 3.288150 8.794197 -1.372250
									CHANNELS 3 Xrotation Yrotation Zrotation
									JOINT LeftArm
									{
										OFFSET 11.953299 -2.279007 -0.146200
										CHANNELS 3 Xrotation Yrotation Zrotation
										JOINT LeftForeArm
										{
											OFFSET 18.448900 0.000000 0.000000
											CHANNELS 3 Xrotation Yrotation Zrotation
											JOINT LeftHand
											{
												OFFSET 29.527798 0.000000 0.000000
												CHANNELS 3 Xrotation Yrotation Zrotation
												End Site
												{
													OFFSET 0 0 0
												}
											}
										}
									}
								}
							}
						}
						JOINT RightShoulder_virtual
						{
							OFFSET 0.000000 0.000000 0.000000
							CHANNELS 3 Xrotation Yrotation Zrotation
							JOINT RightShoulder
							{
								OFFSET -3.249400 8.794197 -1.372250
								CHANNELS 3 Xrotation Yrotation Zrotation
								JOINT RightShoulder_split
								{
									OFFSET -3.249400 8.794197 -1.372250
									CHANNELS 3 Xrotation Yrotation Zrotation
									JOINT RightArm
									{
										OFFSET -11.953299 -2.279007 -0.146200
										CHANNELS 3 Xrotation Yrotation Zrotation
										JOINT RightForeArm
										{
											OFFSET -18.448900 0.000000 0.000000
											CHANNELS 3 Xrotation Yrotation Zrotation
											JOINT RightHand
											{
												OFFSET -29.527802 0.000000 0.000000
												CHANNELS 3 Xrotation Yrotation Zrotation
												End Site
												{
													OFFSET 0 0 0
												}
											}
										}
									}
								}
							}
						}
					}
				}
			}
		}
	}
}
MOTION
Frames: 4
Frame Time: 0.03333333
-0.984159 86.581543 4.281242 0.000000 0.000000 0.000000 14.202310 -48.580960 12.574271 -64.419168 28.334490 40.390669 38.576639 -14.675392 1.674538 4.417717 0.671129 -6.534439 1.403414 -5.708717 -1.437237 0.000000 0.000000 0.000000 12.521887 -48.598442 12.816713 -31.134946 0.480449 -26.269695 39.062846 4.227765 -9.243214 -25.822223 -0.616717 27.084926 4.879837 6.125861 2.824925 0.000000 0.000000 0.000000 15.963518 -45.251639 14.030075 11.328494 1.151233 -3.894261 3.528676 8.387061 -3.688784 1.424910 -3.197889 0.997826 0.000000 0.000000 0.000000 -2.959175 5.387244 -1.334685 -4.142124 13.484351 4.269177 -4.889545 23.404989 -3.330260 0.000000 0.000000 0.000000 -3.854382 5.508999 -1.814449 0.929219 -11.554335 -0.394843 0.143826 -3.505823 -1.285774 -14.218961 7.282281 -49.954101 -21.032888 -24.961469 -13.845436 0.000000 0.000000 0.000000 -4.145624 4.955849 -1.643193 -2.526222 23.512322 0.601483 3.762741 2.860610 0.712681 9.762207 -35.111066 61.127044 -23.433739 42.915147 19.945175 0.000000 0.000000 0.000000 
0.193789 86.552856 5.047085 0.000000 0.000000 0.000000 14.205707 -49.497776 12.500121 -64.375325 28.114828 40.595748 39.279284 -14.346459 1.337700 4.012060 0.887749 -6.674121 1.333924 -5.780316 -1.034700 0.000000 0.000000 0.000000 12.781568 -49.344599 13.010075 -30.872588 0.968584 -26.628556 38.120679 4.255319 -8.883269 -25.221573 -0.507881 26.682762 3.929950 6.127450 2.942448 0.000000 0.000000 0.000000 15.535928 -45.783342 13.514213 11.359013 1.240621 -3.739635 3.484125 8.196577 -3.775528 0.843653 -3.162873 0.814036 0.000000 0.000000 0.000000 -3.223068 5.192916 -1.326724 -4.148364 13.257884 3.981423 -4.517141 23.704013 -3.699458 0.000000 0.000000 0.000000 -4.078894 5.327246 -1.832478 0.846644 -11.333593 -0.146944 1.260490 -2.976472 -1.272344 -13.441920 7.802409 -49.842964 -20.860810 -25.372148 -14.086108 0.000000 0.000000 0.000000 -4.328629 4.785129 -1.649518 -2.690416 23.263322 1.234804 4.032171 2.778388 0.664798 10.978566 -35.633356 62.132626 -23.356288 42.045702 19.747549 0.000000 0.000000 0.000000 
2.258920 86.725586 6.098019 0.000000 0.000000 0.000000 14.109631 -51.482250 12.502743 -64.599847 28.211572 41.223504 41.218720 -13.665988 0.887816 2.987506 1.251659 -6.249545 1.034637 -5.830270 -0.541881 0.000000 0.000000 0.000000 12.977032 -51.173348 13.233500 -30.711946 1.437981 -27.543528 35.758933 4.543458 -8.407535 -22.717802 -0.055811 27.314005 3.477799 6.098129 2.968461 0.000000 0.000000 0.000000 15.202662 -47.319544 13.202076 11.438835 1.377592 -3.509799 3.628759 7.713371 -3.738296 0.285807 -3.025936 0.828064 0.000000 0.000000 0.000000 -3.274643 4.684556 -1.236983 -3.316456 12.611149 3.761603 -4.673650 23.319553 -4.334231 0.000000 0.000000 0.000000 -4.181399 4.819020 -1.778711 0.707965 -11.066532 0.172797 2.438340 -2.430662 -0.841454 -12.351134 8.550293 -49.818758 -20.071424 -25.401970 -14.433096 0.000000 0.000000 0.000000 -4.350636 4.304209 -1.593376 -2.993382 22.805136 1.947031 3.918349 2.653300 0.354985 11.559542 -35.473783 62.663270 -23.472485 40.748113 19.749799 0.000000 0.000000 0.000000 
4.764689 87.009735 7.309174 0.000000 0.000000 0.000000 14.003133 -54.156754 12.650874 -64.948146 28.624961 42.041324 43.777647 -12.856003 0.387828 1.417837 1.579623 -5.383579 0.738915 -5.885378 0.016562 0.000000 0.000000 0.000000 13.008219 -53.677094 13.413382 -30.612833 1.737227 -28.870079 32.462134 5.048143 -7.816936 -18.604476 0.742929 28.985707 3.376358 6.029484 2.893437 0.000000 0.000000 0.000000 15.025989 -49.556335 13.116910 11.498069 1.532135 -3.193987 3.965231 6.944091 -3.599893 -0.045833 -2.978294 1.090281 0.000000 0.000000 0.000000 -3.096484 3.859424 -1.109244 -1.829508 11.624224 3.643603 -5.476006 22.285384 -5.112734 0.000000 0.000000 0.000000 -4.123314 3.979388 -1.687612 0.519641 -10.851248 0.477954 3.544616 -1.872598 -0.089066 -11.260179 9.497740 -49.716377 -18.825074 -25.021749 -14.793324 0.000000 0.000000 0.000000 -4.241176 3.486806 -1.497899 -3.338491 22.169821 2.549877 3.306839 2.287568 -0.015434 11.300440 -34.509292 62.631482 -23.799442 39.258353 19.948063 0.000000 0.000000 0.000000 
